<?xml version="1.0" standalone="no"?>
<!DOCTYPE svg PUBLIC "-//W3C//DTD SVG 20010904//EN"
 "http://www.w3.org/TR/2001/REC-SVG-20010904/DTD/svg10.dtd">
<svg version="1.0" xmlns="http://www.w3.org/2000/svg"
 width="1280.000000pt" height="1280.000000pt" viewBox="0 0 1280.000000 1280.000000"
 preserveAspectRatio="xMidYMid meet">
<g transform="translate(0.000000,1280.000000) scale(0.100000,-0.100000)"
fill="#00bcd4" stroke="none">
<path d="M2769 12780 c-386 -68 -704 -308 -1336 -1010 -220 -244 -306 -331
-692 -700 -478 -456 -663 -734 -727 -1094 -16 -91 -16 -101 0 -189 37 -201 87
-313 225 -508 163 -230 412 -486 936 -966 236 -216 585 -556 1140 -1112 l800
-801 -1366 -1367 c-814 -816 -1396 -1406 -1441 -1463 -179 -225 -234 -336
-297 -603 -16 -68 -14 -120 9 -228 53 -249 146 -424 355 -666 110 -128 240
-255 510 -497 268 -239 392 -363 678 -671 289 -312 425 -447 572 -570 200
-168 348 -255 495 -293 141 -36 170 -42 208 -42 53 0 257 44 319 69 148 59
305 155 465 288 51 42 697 679 1435 1417 l1343 1340 1357 -1355 c747 -745
1400 -1390 1450 -1432 160 -132 320 -229 448 -271 72 -23 232 -56 275 -56 46
0 217 36 294 61 129 43 293 140 446 263 110 87 366 348 602 611 230 257 369
395 733 732 329 304 512 505 637 704 71 113 110 213 139 356 21 101 21 117 10
184 -46 263 -144 464 -349 713 -41 50 -675 692 -1408 1426 -734 735 -1334
1342 -1334 1350 0 8 611 626 1358 1375 811 812 1389 1398 1434 1455 176 222
241 350 288 569 28 131 28 131 -17 336 -33 152 -133 344 -265 510 -97 122
-360 384 -603 600 -275 245 -344 313 -682 678 -603 650 -863 835 -1228 874
-57 6 -258 -33 -343 -66 -146 -58 -305 -156 -464 -288 -51 -42 -694 -677
-1428 -1410 -735 -733 -1342 -1333 -1350 -1333 -27 0 -1826 1811 -2070 2085
-522 583 -823 832 -1148 949 -60 21 -280 69 -301 65 -3 -1 -54 -9 -112 -19z"/>
</g>
</svg>
